{"title":"Kingdom.S01.E09.Cut Day.480p.HDTV_TTL","uid":11631515,"size":407096286,"categoryP":"video","categoryS":"tv_shows","magnet":"?xt=urn:btih:1ca1e7ae12a698abfc575eb409f8a686bf4c0e00&amp;dn=Kingdom.S01.E09.Cut+Day.480p.HDTV_TTL&amp;tr=udp%3A%2F%2Ftracker.openbittorrent.com%3A80&amp;tr=udp%3A%2F%2Fopen.demonii.com%3A1337&amp;tr=udp%3A%2F%2Ftracker.coppersurfer.tk%3A6969&amp;tr=udp%3A%2F%2Fexodus.desync.com%3A6969","seeders":7,"leechers":2,"uploader":"thetorrentlord","files":-1,"time":1417679022,"description":"New series from Direct TV.\t\t\t\t\t\t\t\n\n\t\t\t\t\t\t\t\t\t\t\n\n\t\t\t\t\t\t\t\t\t\t\n\n\t\t\t\t\t\tGrab a sample and check it \n\nIf you like it then go for it.\t\t\t\t\t\n\nEnjoy and and please share.\t\t\t\t\t\t\t\n\nTTLTTLTTLTTLTTLTTLTTLTTLTTLTTLTTLTTLTTLTTLTTLTTLTTLTTLTTLTTLTTLTTLTTLTTL\t\n\nKingdom.S01.E09.Cut Day.480p.HDTV_TTL.mp4\nFormat                           : MPEG-4\nFormat profile                   : Base Media / Version 2\nCodec ID                         : mp42\nFile size                        : 383 MiB\nDuration                         : 46mn 3s\nOverall bit rate mode            : Variable\nOverall bit rate                 : 1 161 Kbps\nEncoded date                     : UTC 2014-12-04 04:45:06\nTagged date                      : UTC 2014-12-04 04:58:59\nWriting application              : HandBrake 0.9.5 2011010300\n\nVideo\nID                               : 1\nFormat                           : AVC\nFormat/Info                      : Advanced Video Codec\nFormat profile                   : &lt;a class=&quot;__cf_email__&quot; href=&quot;/cdn-cgi/l/email-protection&quot; data-cfemail=&quot;e6ab878f88a6aad5c8d6&quot;&gt;[email&amp;#160;protected]&lt;/a&gt;&lt;script cf-hash='f9e31' type=&quot;text/javascript&quot;&gt;\n/* &lt;![CDATA[ */!function(){try{var t=&quot;currentScript&quot;in document?document.currentScript:function(){for(var t=document.getElementsByTagName(&quot;script&quot;),e=t.length;e--;)if(t[e].getAttribute(&quot;cf-hash&quot;))return t[e]}();if(t&amp;&amp;t.previousSibling){var e,r,n,i,c=t.previousSibling,a=c.getAttribute(&quot;data-cfemail&quot;);if(a){for(e=&quot;&quot;,r=parseInt(a.substr(0,2),16),n=2;a.length-n;n+=2)i=parseInt(a.substr(n,2),16)^r,e+=String.fromCharCode(i);e=document.createTextNode(e),c.parentNode.replaceChild(e,c)}}}catch(u){}}();/* ]]&gt; */&lt;/script&gt;\nFormat settings, CABAC           : Yes\nFormat settings, ReFrames        : 4 frames\nCodec ID                         : avc1\nCodec ID/Info                    : Advanced Video Coding\nDuration                         : 46mn 3s\nBit rate mode                    : Variable\nBit rate                         : 995 Kbps\nWidth                            : 624 pixels\nHeight                           : 352 pixels\nDisplay aspect ratio             : 16:9\nFrame rate mode                  : Variable\nFrame rate                       : 29.970 fps\nMinimum frame rate               : 10.420 fps\nMaximum frame rate               : 60.322 fps\nColor space                      : YUV\nChroma subsampling               : 4:2:0\nBit depth                        : 8 bits\nScan type                        : Progressive\nBits/(Pixel*Frame)               : 0.151\nStream size                      : 328 MiB (86%)\nWriting library                  : x264 core 112\n\n\nAudio\nID                               : 2\nFormat                           : AAC\nFormat/Info                      : Advanced Audio Codec\nFormat profile                   : LC\nCodec ID                         : 40\nDuration                         : 46mn 3s\nBit rate mode                    : Variable\nBit rate                         : 160 Kbps\nMaximum bit rate                 : 198 Kbps\nChannel(s)                       : 2 channels\nChannel positions                : Front: L R\nSampling rate                    : 48.0 KHz\nCompression mode                 : Lossy\nStream size                      : 52.7 MiB (14%)\nLanguage                         : English\nEncoded date                     : UTC 2014-12-04 04:45:06\nTagged date                      : UTC 2014-12-04 04:58:59","torrent":{"xt":"urn:btih:1ca1e7ae12a698abfc575eb409f8a686bf4c0e00","amp;dn":"Kingdom.S01.E09.Cut+Day.480p.HDTV_TTL","amp;tr":["udp%3A%2F%2Ftracker.openbittorrent.com%3A80","udp%3A%2F%2Fopen.demonii.com%3A1337","udp%3A%2F%2Ftracker.coppersurfer.tk%3A6969","udp%3A%2F%2Fexodus.desync.com%3A6969"],"infoHash":"1ca1e7ae12a698abfc575eb409f8a686bf4c0e00","infoHashBuffer":{"type":"Buffer","data":[28,161,231,174,18,166,152,171,252,87,94,180,9,248,166,134,191,76,14,0]},"announce":[],"urlList":[]}}